<?xml version="1.0" encoding="UTF-8"?>
<svg xmlns="http://www.w3.org/2000/svg" xmlns:xlink="http://www.w3.org/1999/xlink" viewBox="0 0 3710 3710">
  <defs>
    <style>
      .cls-1 {
        fill: url(#linear-gradient-38);
      }

      .cls-1, .cls-2, .cls-3, .cls-4, .cls-5, .cls-6, .cls-7, .cls-8, .cls-9, .cls-10, .cls-11, .cls-12, .cls-13, .cls-14, .cls-15, .cls-16, .cls-17, .cls-18, .cls-19, .cls-20, .cls-21, .cls-22, .cls-23, .cls-24, .cls-25, .cls-26, .cls-27, .cls-28, .cls-29, .cls-30, .cls-31, .cls-32, .cls-33, .cls-34, .cls-35, .cls-36, .cls-37, .cls-38, .cls-39, .cls-40, .cls-41, .cls-42, .cls-43, .cls-44, .cls-45, .cls-46, .cls-47, .cls-48 {
        stroke-width: 0px;
      }

      .cls-49, .cls-31 {
        fill: url(#linear-gradient-2);
      }

      .cls-2 {
        fill: url(#linear-gradient-12);
      }

      .cls-50, .cls-9, .cls-26 {
        fill: #fff;
      }

      .cls-3 {
        fill: url(#linear-gradient-19);
      }

      .cls-4 {
        fill: url(#linear-gradient-33);
      }

      .cls-5, .cls-51 {
        fill: url(#linear-gradient);
      }

      .cls-6 {
        fill: url(#linear-gradient-21);
      }

      .cls-7 {
        fill: url(#linear-gradient-6);
      }

      .cls-8 {
        fill: #d8dee8;
      }

      .cls-9 {
        opacity: .48;
      }

      .cls-9, .cls-52 {
        mix-blend-mode: soft-light;
      }

      .cls-10 {
        fill: #f4f7fa;
      }

      .cls-11 {
        fill: url(#linear-gradient-36);
      }

      .cls-11, .cls-53, .cls-43 {
        mix-blend-mode: multiply;
        opacity: .3;
      }

      .cls-54 {
        clip-path: url(#clippath-2);
      }

      .cls-55 {
        isolation: isolate;
      }

      .cls-12 {
        fill: url(#linear-gradient-42);
      }

      .cls-13 {
        fill: url(#linear-gradient-15);
      }

      .cls-14 {
        fill: url(#linear-gradient-11);
      }

      .cls-15 {
        fill: url(#linear-gradient-5);
      }

      .cls-16 {
        fill: url(#linear-gradient-31);
      }

      .cls-17 {
        fill: url(#linear-gradient-34);
      }

      .cls-56 {
        clip-path: url(#clippath-1);
      }

      .cls-18 {
        fill: url(#linear-gradient-41);
      }

      .cls-19 {
        fill: url(#linear-gradient-40);
      }

      .cls-20 {
        fill: url(#linear-gradient-13);
      }

      .cls-21 {
        fill: url(#linear-gradient-23);
      }

      .cls-22 {
        fill: url(#linear-gradient-25);
      }

      .cls-23 {
        fill: url(#linear-gradient-43);
      }

      .cls-24 {
        fill: url(#linear-gradient-16);
      }

      .cls-25 {
        fill: url(#linear-gradient-22);
      }

      .cls-27 {
        fill: url(#linear-gradient-35);
      }

      .cls-28 {
        fill: url(#linear-gradient-32);
      }

      .cls-29 {
        fill: url(#linear-gradient-20);
      }

      .cls-30 {
        fill: url(#linear-gradient-14);
      }

      .cls-32 {
        fill: url(#linear-gradient-45);
      }

      .cls-33 {
        fill: url(#linear-gradient-7);
      }

      .cls-34 {
        fill: url(#linear-gradient-39);
      }

      .cls-35 {
        fill: url(#linear-gradient-3);
      }

      .cls-57 {
        clip-path: url(#clippath);
      }

      .cls-36 {
        fill: url(#linear-gradient-9);
      }

      .cls-37 {
        fill: url(#linear-gradient-27);
      }

      .cls-38 {
        fill: url(#linear-gradient-8);
      }

      .cls-39 {
        fill: url(#linear-gradient-24);
      }

      .cls-40 {
        fill: url(#linear-gradient-26);
      }

      .cls-41 {
        fill: url(#linear-gradient-18);
      }

      .cls-42 {
        fill: url(#linear-gradient-30);
      }

      .cls-43 {
        fill: url(#linear-gradient-17);
      }

      .cls-44 {
        fill: url(#linear-gradient-44);
      }

      .cls-45 {
        fill: url(#linear-gradient-29);
      }

      .cls-46 {
        fill: url(#linear-gradient-28);
      }

      .cls-47 {
        fill: url(#linear-gradient-10);
      }

      .cls-58 {
        fill: url(#linear-gradient-4);
      }

      .cls-48 {
        fill: url(#linear-gradient-37);
      }
    </style>
    <linearGradient id="linear-gradient" x1="1995.51" y1="1056.01" x2="2511.88" y2="2699.01" gradientUnits="userSpaceOnUse">
      <stop offset="0" stop-color="#a3e39c"/>
      <stop offset="1" stop-color="#5df6c8"/>
    </linearGradient>
    <clipPath id="clippath">
      <path class="cls-5" d="m1874.75,3107.61c-47.76-145.55-96.37-367.74-39.47-614.43,65.35-283.27,210.1-339.94,340.07-642.73,185.53-432.22-24.44-745.32,167.62-877.42,93.66-64.42,240.95-64.47,331.75.2,259.07,184.53,188.05,988.28-223,1301.92-185.9,141.85-348.13,125.02-487.63,308.59-123.27,162.2-113.6,376.18-89.36,523.86Z"/>
    </clipPath>
    <linearGradient id="linear-gradient-2" x1="3146.53" y1="5164.93" x2="3051.49" y2="4745.63" gradientUnits="userSpaceOnUse">
      <stop offset="0" stop-color="#93f9f3"/>
      <stop offset="1" stop-color="#6dd7a9"/>
    </linearGradient>
    <clipPath id="clippath-1">
      <path class="cls-31" d="m1726.69,2879.43c-16.16-97.77-25.46-250.46,54.13-387.01,138.84-238.23,391.9-159.2,634.13-414.43,195.37-205.85,133.8-365.84,350.28-502.65,36.24-22.9,227.7-148.91,370.08-73.01,80.23,42.77,109.3,130.57,114.76,147.05,82.48,249.12-171.27,639.15-502,817.54-190.02,102.49-251.33,69-585.72,188.53-196.49,70.24-344.02,160.68-435.67,223.99Z"/>
    </clipPath>
    <linearGradient id="linear-gradient-3" x1="321.84" y1="1445.65" x2="-1108.46" y2="2620.54" gradientTransform="translate(3271.1 1020.59) rotate(18.97)" gradientUnits="userSpaceOnUse">
      <stop offset="0" stop-color="#ff1262"/>
      <stop offset="1" stop-color="#fb746d"/>
    </linearGradient>
    <linearGradient id="linear-gradient-4" x1="1895.96" y1="2601.97" x2="3085.53" y2="2601.97" gradientTransform="matrix(1,0,0,1,0,0)" xlink:href="#linear-gradient-3"/>
    <linearGradient id="linear-gradient-5" x1="1895.96" y1="2601.97" x2="3085.53" y2="2601.97" gradientTransform="matrix(1,0,0,1,0,0)" xlink:href="#linear-gradient-3"/>
    <clipPath id="clippath-2">
      <path class="cls-15" d="m1895.96,2862.32c54.37-39.08,143.37-95.64,263.08-138.08,212.92-75.48,310.5-30.95,400.63-120.97,93.3-93.18,32.87-184.95,144.58-289,9.39-8.75,129.33-117.58,237.84-77.06,75.91,28.35,105.47,114.58,119.33,155.04,53.82,157.02,22.53,396.28-144.99,514.3-158.82,111.89-359.9,58.56-423.74,41.18-112-30.5-138.54-74.15-252.4-101.75-138.46-33.57-262.92-8.7-344.33,16.33Z"/>
    </clipPath>
    <linearGradient id="linear-gradient-6" x1="-749.1" y1="2839.96" x2="-605.21" y2="2839.96" gradientTransform="translate(230.29) rotate(-180) scale(1 -1)" gradientUnits="userSpaceOnUse">
      <stop offset="0" stop-color="#311944"/>
      <stop offset="1" stop-color="#6b3976"/>
    </linearGradient>
    <linearGradient id="linear-gradient-7" x1="-649.95" y1="2831.79" x2="-530.86" y2="2474.52" gradientTransform="translate(230.29) rotate(-180) scale(1 -1)" gradientUnits="userSpaceOnUse">
      <stop offset="0" stop-color="#ff6528"/>
      <stop offset="1" stop-color="#f38a67"/>
    </linearGradient>
    <linearGradient id="linear-gradient-8" x1="-1230.44" y1="2783.19" x2="-1086.55" y2="2783.19" xlink:href="#linear-gradient-6"/>
    <linearGradient id="linear-gradient-9" x1="-1123.63" y1="2780.51" x2="-992.49" y2="2387.08" xlink:href="#linear-gradient-7"/>
    <linearGradient id="linear-gradient-10" x1="1027.26" y1="1293.21" x2="1345.69" y2="2492.88" gradientTransform="matrix(1,0,0,1,0,0)" xlink:href="#linear-gradient-6"/>
    <linearGradient id="linear-gradient-11" x1="635.02" y1="2124.94" x2="1091.88" y2="2124.94" gradientTransform="matrix(1,0,0,1,0,0)" xlink:href="#linear-gradient-6"/>
    <linearGradient id="linear-gradient-12" x1="2261.74" y1="1415.28" x2="2125.98" y2="1879.35" gradientTransform="matrix(1,0,0,1,0,0)" xlink:href="#linear-gradient-7"/>
    <linearGradient id="linear-gradient-13" x1="1330.55" y1="1757.74" x2="2133.51" y2="1007.8" xlink:href="#linear-gradient-2"/>
    <linearGradient id="linear-gradient-14" x1="993.25" y1="1363.92" x2="1778.22" y2="630.79" xlink:href="#linear-gradient-2"/>
    <linearGradient id="linear-gradient-15" x1="1609.65" y1="1056.49" x2="1325.02" y2="1397.34" gradientUnits="userSpaceOnUse">
      <stop offset="0" stop-color="#444b8c"/>
      <stop offset="1" stop-color="#26264f"/>
    </linearGradient>
    <linearGradient id="linear-gradient-16" x1="1263.57" y1="1123.27" x2="1127.81" y2="1587.33" gradientTransform="matrix(1,0,0,1,0,0)" xlink:href="#linear-gradient-7"/>
    <linearGradient id="linear-gradient-17" x1="993.23" y1="1363.9" x2="1778.2" y2="630.76" xlink:href="#linear-gradient-2"/>
    <linearGradient id="linear-gradient-18" x1="1148.29" y1="-397.42" x2="1166.41" y2="-879.96" gradientTransform="translate(357.52 286.04) rotate(46.63)" xlink:href="#linear-gradient-7"/>
    <linearGradient id="linear-gradient-19" x1="868.85" y1="-233.84" x2="753.2" y2="-527.58" gradientTransform="translate(2148.01 1404.96) rotate(-147.55) scale(1 -1)" xlink:href="#linear-gradient-6"/>
    <linearGradient id="linear-gradient-20" x1="767.04" y1="-450.57" x2="761.87" y2="-33.7" gradientTransform="translate(848.96 639.09) rotate(28.94)" xlink:href="#linear-gradient-7"/>
    <linearGradient id="linear-gradient-21" x1="833.15" y1="1192.5" x2="1618.12" y2="459.37" xlink:href="#linear-gradient-2"/>
    <linearGradient id="linear-gradient-22" x1="3263.94" y1="4434.53" x2="3661.52" y2="4685.49" gradientTransform="translate(7514.84 -18.06) rotate(-146.04) scale(1 -1)" gradientUnits="userSpaceOnUse">
      <stop offset="0" stop-color="#ab316d"/>
      <stop offset="1" stop-color="#792d3d"/>
    </linearGradient>
    <linearGradient id="linear-gradient-23" x1="3572.35" y1="4460.38" x2="3298.79" y2="4499.87" xlink:href="#linear-gradient-22"/>
    <linearGradient id="linear-gradient-24" x1="3396.81" y1="2822.59" x2="3261.84" y2="4168.9" gradientTransform="translate(7514.84 -18.06) rotate(-146.04) scale(1 -1)" xlink:href="#linear-gradient-7"/>
    <linearGradient id="linear-gradient-25" x1="3352.11" y1="2704.91" x2="3340.83" y2="3189.92" xlink:href="#linear-gradient-22"/>
    <linearGradient id="linear-gradient-26" x1="3606.63" y1="4803.46" x2="3892.95" y2="4984.19" gradientTransform="translate(7315.66 -1096.42) rotate(-157.32) scale(1 -1)" gradientUnits="userSpaceOnUse">
      <stop offset="0" stop-color="#40447e"/>
      <stop offset="1" stop-color="#3c3b6b"/>
    </linearGradient>
    <linearGradient id="linear-gradient-27" x1="3702.32" y1="3642.58" x2="3605.12" y2="4612.16" gradientTransform="translate(7315.66 -1096.42) rotate(-157.32) scale(1 -1)" xlink:href="#linear-gradient-7"/>
    <linearGradient id="linear-gradient-28" x1="3670.14" y1="3557.84" x2="3662.01" y2="3907.12" gradientTransform="translate(7315.66 -1096.42) rotate(-157.32) scale(1 -1)" xlink:href="#linear-gradient-22"/>
    <linearGradient id="linear-gradient-29" x1="2721" y1="572.21" x2="2409.42" y2="979.16" gradientTransform="translate(-52.33 299.14) rotate(-8.67)" xlink:href="#linear-gradient-3"/>
    <linearGradient id="linear-gradient-30" x1="2721" y1="572.21" x2="2409.42" y2="979.16" gradientTransform="translate(-52.33 299.14) rotate(-8.67)" xlink:href="#linear-gradient-3"/>
    <linearGradient id="linear-gradient-31" x1="2748.15" y1="593" x2="2436.58" y2="999.95" gradientTransform="translate(-52.33 299.14) rotate(-8.67)" xlink:href="#linear-gradient-3"/>
    <linearGradient id="linear-gradient-32" x1="1623.83" y1="3127.32" x2="1426.55" y2="3210.18" gradientTransform="matrix(1,0,0,1,0,0)" xlink:href="#linear-gradient-26"/>
    <linearGradient id="linear-gradient-33" x1="1360.4" y1="2257.83" x2="1146.3" y2="2347.75" gradientTransform="matrix(1,0,0,1,0,0)" xlink:href="#linear-gradient-26"/>
    <linearGradient id="linear-gradient-34" x1="437.58" y1="2306.51" x2="2421.73" y2="2306.51" gradientTransform="matrix(1,0,0,1,0,0)" xlink:href="#linear-gradient-26"/>
    <linearGradient id="linear-gradient-35" x1="437.58" y1="3040.23" x2="3245.96" y2="3040.23" gradientTransform="matrix(1,0,0,1,0,0)" xlink:href="#linear-gradient-26"/>
    <linearGradient id="linear-gradient-36" x1="712.99" y1="3017.22" x2="2770.67" y2="3017.22" gradientTransform="matrix(1,0,0,1,0,0)" xlink:href="#linear-gradient-26"/>
    <linearGradient id="linear-gradient-37" x1="2156.68" y1="1050.28" x2="1382.02" y2="2062.08" gradientTransform="matrix(1,0,0,1,0,0)" xlink:href="#linear-gradient-3"/>
    <linearGradient id="linear-gradient-38" x1="1435.17" y1="2396.24" x2="2172.94" y2="1626.85" xlink:href="#linear-gradient"/>
    <linearGradient id="linear-gradient-39" x1="2597.56" y1="1947.95" x2="1965.19" y2="3096.77" gradientTransform="matrix(1,0,0,1,0,0)" xlink:href="#linear-gradient-7"/>
    <linearGradient id="linear-gradient-40" x1="2732.9" y1="2022.45" x2="2100.53" y2="3171.26" gradientTransform="matrix(1,0,0,1,0,0)" xlink:href="#linear-gradient-7"/>
    <linearGradient id="linear-gradient-41" x1="1613.54" y1="2766.5" x2="2576.2" y2="2365.97" xlink:href="#linear-gradient"/>
    <linearGradient id="linear-gradient-42" x1="782.2" y1="1497.24" x2="766.96" y2="1544.02" gradientTransform="translate(2151.51 512.47) rotate(80.78)" gradientUnits="userSpaceOnUse">
      <stop offset=".49" stop-color="#ebeff2"/>
      <stop offset="1" stop-color="#fff"/>
    </linearGradient>
    <linearGradient id="linear-gradient-43" x1="863.01" y1="1497.24" x2="847.77" y2="1544.02" gradientTransform="translate(2138.82 338.76) rotate(76.72)" xlink:href="#linear-gradient-42"/>
    <linearGradient id="linear-gradient-44" x1="943.82" x2="928.58" gradientTransform="translate(2287.23 352.95) rotate(80.78)" xlink:href="#linear-gradient-42"/>
    <linearGradient id="linear-gradient-45" x1="2233.99" y1="1541.28" x2="2191.82" y2="1723.98" gradientTransform="matrix(1,0,0,1,0,0)" xlink:href="#linear-gradient-7"/>
  </defs>
  <g class="cls-55">
    <g id="Illustration">
      <g>
        <path class="cls-10" d="m1095.54,555.2c-96.45,140.6,16.64,368.56-126.48,474.3-139.32,102.94-310.47-65.79-441.76,22.82-194.77,131.44-159.2,732.9,125.56,1106.6,85.64,112.38,157.2,156.11,188.89,283.21,68.05,272.92-171.12,435.27-125.6,570.25,102.48,303.93,1678.56,558.96,2310.96-354.44,295.35-426.6,339.55-1042.6,75.66-1510.46-476.84-845.42-1790.79-907.76-2007.22-592.27Z"/>
        <g>
          <g>
            <path class="cls-51" d="m1874.75,3107.61c-47.76-145.55-96.37-367.74-39.47-614.43,65.35-283.27,210.1-339.94,340.07-642.73,185.53-432.22-24.44-745.32,167.62-877.42,93.66-64.42,240.95-64.47,331.75.2,259.07,184.53,188.05,988.28-223,1301.92-185.9,141.85-348.13,125.02-487.63,308.59-123.27,162.2-113.6,376.18-89.36,523.86Z"/>
            <g class="cls-57">
              <g class="cls-52">
                <path class="cls-26" d="m1845,2741.25l-3.42-.87c15.64-61.44,36.65-121.82,62.47-179.44,59.38-132.55,124.82-205.34,207.67-297.51,53.85-59.9,114.87-127.79,185.37-225.08,131.85-181.99,172.76-245.88,209.33-348.66,72.41-203.52,61.29-385.98,48.21-476.63-18.54-128.59-61.69-250.97-128.24-363.72l3.05-1.8c66.78,113.16,110.08,235.97,128.69,365.02,13.12,90.97,24.28,274.07-48.38,478.31-36.71,103.2-77.7,167.24-209.79,349.55-70.6,97.44-131.7,165.41-185.6,225.38-82.64,91.93-147.91,164.55-207.07,296.59-25.74,57.44-46.69,117.62-62.27,178.87Z"/>
                <path class="cls-26" d="m2546.3,1545.78l-.05-2.91c-2.66-149.98-98.51-247.05-178.46-302.07-86.75-59.7-173.95-84.17-174.82-84.41l.94-3.41c.87.24,88.65,24.86,175.88,84.9,80.1,55.13,176.05,152.15,179.93,301.95,13.81-8.05,81.27-49.59,141.95-126.02,62.38-78.58,130.16-211.2,98.8-396.77l3.49-.59c31.59,186.92-36.73,320.52-99.61,399.67-68.1,85.74-144.73,127.86-145.49,128.28l-2.56,1.39Z"/>
                <path class="cls-26" d="m2522.8,2027.3c-15.34,0-29.81-.76-43.2-1.98-84.19-7.7-144.5-35-145.1-35.28l-1.35-.62.38-1.44c38.61-147.21,5.1-255.67-29.8-320.74-37.84-70.54-85.44-106.73-85.92-107.09l2.12-2.83c.48.36,48.61,36.93,86.83,108.1,35.14,65.43,68.88,174.34,30.57,322,9.34,4.04,66.04,27.4,142.71,34.39,77.06,7.02,190.7-1.53,294.33-82.18l2.17,2.79c-86.56,67.38-180.02,84.89-253.74,84.89Z"/>
                <path class="cls-26" d="m2349.46,2308.6c-44.9,0-81.79-6.24-110.32-14.01-70.49-19.19-106.66-51.65-107.02-51.98l-.94-.85.51-1.16c65.29-149.55-25.79-394.2-26.71-396.65l3.31-1.25c.93,2.46,92.02,247.17,27.16,398.12,6.08,5.14,41.35,33.18,104.85,50.42,64.4,17.49,171.85,27.13,317.99-26.26l1.21,3.32c-82.48,30.13-152.77,40.3-210.04,40.3Z"/>
              </g>
            </g>
          </g>
          <g>
            <path class="cls-49" d="m1726.69,2879.43c-16.16-97.77-25.46-250.46,54.13-387.01,138.84-238.23,391.9-159.2,634.13-414.43,195.37-205.85,133.8-365.84,350.28-502.65,36.24-22.9,227.7-148.91,370.08-73.01,80.23,42.77,109.3,130.57,114.76,147.05,82.48,249.12-171.27,639.15-502,817.54-190.02,102.49-251.33,69-585.72,188.53-196.49,70.24-344.02,160.68-435.67,223.99Z"/>
            <g class="cls-56">
              <g class="cls-52">
                <path class="cls-26" d="m1698.1,2997.02l-3.46-.72c48.65-233.68,140.93-390.69,274.27-466.65,65.27-37.18,117.24-43.07,172.26-49.29,59.17-6.7,120.37-13.62,201.14-62.47,78.5-47.47,106.64-93.18,142.27-151.04,32.05-52.05,71.93-116.82,161.45-203.1,78.46-75.62,135.6-111.02,186.01-142.24,54.61-33.83,97.74-60.55,147.68-125.99,81.57-106.9,124.21-243.96,126.72-407.39l3.53.05c-2.52,164.2-45.4,301.97-127.44,409.48-50.34,65.96-93.72,92.83-148.64,126.85-50.26,31.13-107.22,66.42-185.41,141.78-89.2,85.97-128.95,150.53-160.89,202.41-35.88,58.27-64.22,104.3-143.45,152.22-81.44,49.24-143.02,56.21-202.57,62.95-54.65,6.18-106.27,12.03-170.91,48.85-132.42,75.44-224.12,231.65-272.55,464.3Z"/>
                <path class="cls-26" d="m2831.38,1938.75c-6.74,0-13.52-.1-20.4-.31l-2.36-.07.74-2.25c1.07-3.26,105.98-327.64-13.52-461.73l2.64-2.35c34.9,39.17,72.43,120.28,52.96,284.27-10.54,88.83-33.64,164.8-38.01,178.67,177.67,4.81,309.92-62.45,389.62-119.86,86.79-62.51,131.82-127.16,132.26-127.81l2.91,2c-.45.65-45.75,65.72-132.99,128.59-77.44,55.81-204.15,120.86-373.86,120.86Z"/>
                <path class="cls-26" d="m2844.43,2215.12c-27.4,0-52.88-1.42-76-3.65-124.3-11.97-208.61-49.11-209.44-49.49l-1.39-.62.4-1.47c46.72-169.14,5.5-409.79,5.08-412.2l3.48-.61c.42,2.41,41.53,242.45-4.75,412.27,11.43,4.84,92.02,37.55,207.09,48.61,114.16,10.98,286.58,2.27,459.7-101.52l1.82,3.03c-138.93,83.29-277.42,105.64-385.99,105.64Z"/>
                <path class="cls-26" d="m2697.14,2609.71c-162.43,0-287.92-34.32-365.97-63.95-88.92-33.75-137.21-68.9-137.68-69.25l-1.5-1.1,1.18-1.44c128.42-156.77,78.39-415.78,77.87-418.38l3.47-.69c.52,2.61,50.56,261.65-77.4,419.84,18.71,12.97,207.8,138.03,524.97,131.17l.08,3.53c-8.43.18-16.77.27-25.01.27Z"/>
              </g>
            </g>
          </g>
          <path class="cls-35" d="m1895.96,2862.32c54.37-39.08,143.37-95.64,263.08-138.08,212.92-75.48,310.5-30.95,400.63-120.97,93.3-93.18,32.87-184.95,144.58-289,9.39-8.75,129.33-117.58,237.84-77.06,75.91,28.35,105.47,114.58,119.33,155.04,53.82,157.02,22.53,396.28-144.99,514.3-158.82,111.89-359.9,58.56-423.74,41.18-112-30.5-138.54-74.15-252.4-101.75-138.46-33.57-262.92-8.7-344.33,16.33Z"/>
          <g>
            <path class="cls-58" d="m1895.96,2862.32c54.37-39.08,143.37-95.64,263.08-138.08,212.92-75.48,310.5-30.95,400.63-120.97,93.3-93.18,32.87-184.95,144.58-289,9.39-8.75,129.33-117.58,237.84-77.06,75.91,28.35,105.47,114.58,119.33,155.04,53.82,157.02,22.53,396.28-144.99,514.3-158.82,111.89-359.9,58.56-423.74,41.18-112-30.5-138.54-74.15-252.4-101.75-138.46-33.57-262.92-8.7-344.33,16.33Z"/>
            <g class="cls-54">
              <g class="cls-52">
                <path class="cls-50" d="m1851.28,2897.63l-2.09-2.85c132.45-96.92,261.8-142.58,384.4-135.72,53.61,3,91.23,14.93,127.61,26.47,45.48,14.43,88.44,28.05,159.71,25.08,128.27-5.36,237.71-48.88,308.17-122.55,109.13-114.1,133.28-305.51,61.52-487.64l3.29-1.3c72.26,183.41,47.83,376.29-62.26,491.38-71.09,74.34-181.39,118.25-310.57,123.64-71.94,3-115.15-10.72-160.94-25.24-36.17-11.47-73.58-23.33-126.74-26.31-121.79-6.81-250.34,38.62-382.12,135.04Z"/>
                <path class="cls-50" d="m2881.73,2616.46l.2-2.71c8.23-109.27-57.57-192.16-114.22-242.46-61.5-54.6-125.74-83.64-126.38-83.92l1.44-3.23c.65.29,65.38,29.55,127.28,84.51,56.77,50.4,122.63,133.25,115.59,242.61,23.93-9.27,207.59-85.26,219.63-235.52l3.52.28c-12.99,162.23-222.4,238.78-224.51,239.53l-2.56.91Z"/>
                <path class="cls-50" d="m2841.3,2865.09c-31.5,0-59.34-3.19-83.04-7.74-87.82-16.84-139.19-55.42-139.7-55.81l-1.37-1.05,1.01-1.4c63.98-88.21,53.34-184.88,33.15-250.44-21.92-71.17-59.45-122.03-59.83-122.54l2.83-2.11c.38.51,38.28,51.87,60.37,123.61,20.32,65.98,31.05,163.13-32.64,252.12,8.72,6.18,57.92,39.05,137.02,54.17,80.36,15.37,208.9,15.04,364.97-73.78l1.75,3.07c-111.11,63.23-208.44,81.88-284.54,81.88Z"/>
              </g>
            </g>
          </g>
        </g>
        <g>
          <g>
            <path class="cls-7" d="m949.89,2839.92l-71.99-43.26h-32.49s-11.07,41.2-9.81,43.26c14.48,23.72,81.88,41.77,123.94,43.26,6.98.25,16.73.29,19.25-4.78,4.26-8.57-14.79-26.55-28.89-38.48Z"/>
            <path class="cls-33" d="m876.62,2749.46c-.12,25.2.96,42.99,7.27,50.81,4.44,5.51-38.25,17.89-38.48-3.6-.15-14.15-2.38-38.42-4.64-45.54,11.95-.55,23.9-1.11,35.86-1.66Z"/>
          </g>
          <g>
            <path class="cls-38" d="m1431.24,2783.14l-71.99-43.26h-32.49s-11.07,41.2-9.81,43.26c14.48,23.72,81.88,41.77,123.94,43.26,6.98.25,16.73.28,19.25-4.78,4.26-8.57-14.79-26.55-28.89-38.48Z"/>
            <path class="cls-36" d="m1337.37,2692.99c10.49,20.06,21.55,42.68,27.86,50.5,4.44,5.51-31.03,16.56-38.48-3.6-6.04-16.35-22.97-38.11-25.23-45.23,11.95-.55,23.9-1.11,35.86-1.66Z"/>
          </g>
          <path class="cls-47" d="m1322.56,1512.76c-27.86,185.25-46.05,415.65-29.62,678.82,12.14,194.38,40.69,366.97,74.05,513.44-22.22,5.76-44.43,11.52-66.65,17.28-27.66-6.41-66.87-20.27-93.8-54.31-35.41-44.75-19.26-86.01-44.43-160.45-24.03-71.06-52.74-74.83-81.46-135.77-37.46-79.48-14.58-128.15-17.28-234.5-4.56-179.91-73.91-193.85-96.27-417.17-11.7-116.92-17.48-184.06,24.68-227.1,59.04-60.27,188.86-49.58,330.77,19.75Z"/>
          <path class="cls-14" d="m1169.52,1525.1c-76.09,177.06-155.17,403.83-207.35,673.89-41.7,215.82-56.85,410.75-59.24,575.15h-74.05c-21.42-31.17-49.57-79.49-66.65-143.17-17.03-63.5-6.32-79.86-17.28-180.2-14.94-136.74-34.51-143.04-32.09-224.63,2.78-93.76,31.28-93.39,41.96-187.6,15.81-139.37-41.75-182.38-39.5-311.03,1.01-57.79,14.31-144.84,78.99-251.78,125.07,16.46,250.14,32.91,375.21,49.37Z"/>
          <path class="cls-2" d="m2142.1,1503.44l29.03,25.73s63.73-2.51,86.68,3.32c22.95,5.84,62.54,25.73,62.54,25.73,0,0-9.9,14.61-23.93,9.08-14.04-5.54-35.72-13.02-39.89-10.99-4.17,2.03-13.98,28.46-47.4,32.88-33.42,4.42-48.97-34.92-48.97-34.92l-31.64-26.86,13.59-23.97Z"/>
          <path class="cls-20" d="m1809.47,825.91c11.76,1.44,34.81,8.55,87.01,105.53,72.5,134.67,72.36,211.28,111.08,294.36,28.91,62.03,86.23,142.07,212.12,213.37-9.51,11.2-19.02,22.4-28.52,33.6-51.05,4.08-131.44,4.27-223.78-23.42-28.79-8.63-81.35-24.8-137.63-61.34-42.02-27.29-171.21-111.19-190.6-251.07-21.19-152.9,96.43-320.09,170.32-311.02Z"/>
          <path class="cls-30" d="m1146.69,653.74c75.72-24.26,134.99-17.54,240.67-5.55,154.23,17.49,253.1,68.62,338.8,112.93,84.22,43.55,106.52,68.13,118.49,96.27,27.9,65.62-6.09,137.3-27.77,181.43-55.35,112.67-106.72,108.75-224.01,244.38-103.19,119.31-154.79,178.97-188.84,266.59-15.06,38.76-29.77,88.95-77.76,118.49-46.58,28.67-99.46,22.46-129.59,18.51-126.6-16.57-137.82-98.27-220.31-92.57-65.73,4.55-79.99,57.91-192.54,75.9-50.31,8.04-64.98.18-72.2-5.55-27.39-21.75-24.2-73.75,1.85-179.58,40.05-162.71,75.75-215.46,109.23-344.35,34.77-133.85,7.99-122.08,37.03-198.09,9.76-25.54,89.71-225.62,286.96-288.81Z"/>
          <path class="cls-13" d="m1162.22,1328.32l266.87-292.91c6.44-8.51,17.06-12.75,27.59-11.03l305.63,49.96c13.1,2.14,19.13,17.51,10.99,27.99l-248.45,319.66c-6.66,8.57-17.58,12.67-28.24,10.59l-316.95-58.63c-20.9-4.08-30.29-28.65-17.44-45.63Z"/>
          <path class="cls-24" d="m1151.01,1234.03l57.13-24.93s21.81-31.16,39.47-36.35c17.66-5.19,81.02,2.08,81.02,2.08,0,0-6.23,24.93-18.7,29.08-12.46,4.16-50.9,7.27-57.13,19.74-6.23,12.46-29.08,21.81-37.39,17.66-8.31-4.16-61.28,13.5-61.28,13.5l-3.12-20.77Z"/>
          <path class="cls-43" d="m1170.75,1620.14c-26.33-32.16-12.13-70.73-48.13-103.68-58.66-53.67-164.81-13.96-170.32-33.32-6.61-23.19,152.39-56.82,170.32-148.11,8.13-41.39-21.81-48.43-18.51-103.67,3.09-51.79,35.43-94.48,99.97-177.73,50.96-65.73,64.75-71.08,66.65-96.27,5.72-75.72-89.93-128.41-129.59-155.51-48.51-33.14-99.2-50.32-146.52-58.18-88.31,81.34-128.17,181.33-134.88,198.89-29.04,76.01-2.26,64.25-37.03,198.09-33.48,128.88-69.18,181.64-109.23,344.35-26.05,105.83-29.24,157.83-1.85,179.58,7.22,5.74,21.9,13.6,72.2,5.55,112.55-17.99,126.81-71.36,192.54-75.9,82.49-5.71,93.71,76,220.31,92.57,30.13,3.94,83.02,10.16,129.59-18.51,10.49-6.45,19.31-13.94,26.97-22.03-111.94,20.57-160.39.87-182.48-26.11Z"/>
          <g>
            <path class="cls-41" d="m1687.89,573.51c-16.91,40.64-80.22,143.17-217.06,92.93-36.62-13.45-42.87-8.71-44.99-5.89-10.33,13.77,63.03,105.32,166.84,133.23,63.32,17.02,131.04,8.49,134.64-9.14,3.62-17.75-41.62-16.13-46.82-53.14-3.62-25.77,48.49-56.64,75.29-74.05-4.37-33.68-63.49-50.18-67.88-83.93Z"/>
            <g>
              <path class="cls-3" d="m1801.72,653.84c23.45-7.69,42.45-34.23,38.97-60.3-3-22.43-21.89-36.72-33.21-45.28-32.83-24.83-86.33-38.42-121.52-18.64-20.87,11.73-25.12,59.52-26.35,67.83-1.38,9.4,3.34,15.73,5.55,24.78,3.06,12.55,7.73,32.37,15.01,65.2,5.67-5.02,13.15-10.97,22.51-16.67,3.6-2.19,17.83-10.65,33.78-15.18,31.94-9.08,42.99,5.56,65.23-1.74Z"/>
              <path class="cls-29" d="m1661.77,652.5s.28,48,48.43,72.89c43.03,22.23,104.97-57.12,90.45-90.5-4.85-11.14-20.85-24.14-37.63-29.13-9.92-2.95-14.92-1.52-31.04-6.63-14.89-4.72-17.66-8.17-23.52-7.57-7.33.75-16.94,7.58-25.21,36.73-3.09-11.89-10.75-20.32-19.4-21.5-1.38-.19-5.4-.16-8.78,1.51-12.22,6.03-10.68,23.97,6.71,44.21Z"/>
            </g>
          </g>
          <path class="cls-6" d="m1391.06,679.66c-50.04-84.47-285.62-53.57-444.32,38.88-51.68,30.11-209.29,121.92-220.31,281.4-1.2,17.33-4.28,87.76,37.03,153.66,69.47,110.84,233.74,159.75,407.3,116.63-1.85-18.51-3.7-37.03-5.55-55.54-14.78.51-73.61.84-125.89-42.58-10.47-8.7-72.7-60.39-62.95-107.38,16.38-78.88,213.12-35.87,340.65-168.47,57.18-59.45,106.99-161.01,74.05-216.61Z"/>
        </g>
        <g>
          <path class="cls-25" d="m1528.98,2735c31.96,50.98,77.56,81.7,136.82,92.14l1275.81-1894.41-136.82-92.14-1275.81,1894.41Z"/>
          <path class="cls-21" d="m1614.98,2811.74c-19.13-8.62-36.32-20.1-51.59-34.45l1284.66-1907.55,51.45,34.65-1284.53,1907.35Z"/>
          <path class="cls-39" d="m2804.79,840.6c27.34,56.72,72.74,87.73,136.82,92.14l224.84-471.91c2.39-5.54-4.66-10.29-8.9-5.99l-352.76,385.75Z"/>
          <path class="cls-22" d="m3166.45,460.83l-87.4,183.44c-22.94-8.32-42.48-21.49-58.68-39.42l137.19-150.02c4.24-4.3,11.29.45,8.9,5.99Z"/>
        </g>
        <g>
          <path class="cls-40" d="m1696,2692.43c29.75,31.51,66.29,46.78,109.62,45.8l634.21-1517.77-109.62-45.8-634.21,1517.77Z"/>
          <path class="cls-37" d="m2330.21,1174.66c27.3,36.21,63.73,51.72,109.62,45.8l92.32-364.99c.91-4.25-4.74-6.61-7.13-2.98l-194.81,322.16Z"/>
          <path class="cls-46" d="m2532.14,855.48l-35.89,141.88c-17.38-2.64-33.03-9.19-47-19.57l75.76-125.29c2.39-3.63,8.04-1.27,7.13,2.98Z"/>
          <path class="cls-45" d="m2675.5,418.55s65.95,135.1,17.3,325.41c-48.65,190.31-182.23,282.28-228.75,253.58-46.52-28.7-106.77-140.29-57.71-230.84,49.07-90.55,240.65-225.9,269.16-348.15Z"/>
          <path class="cls-42" d="m2675.5,418.55s65.95,135.1,17.3,325.41c-48.65,190.31-182.23,282.28-228.75,253.58-46.52-28.7-106.77-140.29-57.71-230.84,49.07-90.55,240.65-225.9,269.16-348.15Z"/>
          <g class="cls-53">
            <path class="cls-16" d="m2675.5,418.55c-2.74,11.73-6.99,23.59-12.46,35.51,26.33,100.08,11.1,154.65-14.53,186.39-35.8,44.33-85,35.78-122.23,93.65-48.89,75.98.95,145.1-39.15,198.88-10.23,13.72-26.63,26.83-54,35.27,10.12,12.95,20.84,23.07,30.92,29.29,46.51,28.7,180.09-63.27,228.75-253.58,48.65-190.31-17.3-325.41-17.3-325.41Z"/>
          </g>
        </g>
        <g>
          <path class="cls-28" d="m3245.96,3019.37l-2808.37-24.46v72.37c0,19.64,12.25,36.34,28.84,39.32l794.12,142.51c9.42,1.69,18.98,2.14,28.49,1.34l1926.4-162.48c17.2-1.45,30.52-18.2,30.52-38.39v-30.21Z"/>
          <g>
            <path class="cls-4" d="m2341.91,2902.05l-1873.41,132.39c-33.52,2.37-60.78-22.8-60.78-56.23v-1339.27c0-33.43,27.26-60.53,60.78-60.53h1873.41c27.62,0,49.95,24.5,49.95,54.72v1210.67c0,30.22-22.33,56.29-49.95,58.25Z"/>
            <path class="cls-17" d="m2371.78,2902.05l-1873.41,132.39c-33.52,2.37-60.78-22.8-60.78-56.23v-1339.27c0-33.43,27.26-60.53,60.78-60.53h1873.41c27.62,0,49.95,24.5,49.95,54.72v1210.67c0,30.22-22.33,56.29-49.95,58.25Z"/>
            <path class="cls-26" d="m2313.42,2816.7l-1744.89,115c-27.28,1.8-49.45-18.86-49.45-46.15v-1172.53c0-27.29,22.17-49.5,49.45-49.62l1744.89-7.22c22.78-.09,41.21,19.98,41.21,44.84v1067.97c0,24.86-18.43,46.22-41.21,47.72Z"/>
            <path class="cls-26" d="m1501.23,1615.05c0,12.44-9.64,22.56-21.55,22.6-11.92.04-21.6-10.05-21.6-22.52s9.67-22.59,21.6-22.6c11.91,0,21.55,10.07,21.55,22.52Z"/>
            <path class="cls-9" d="m1920.41,2534.74c-144.42-77.71-257.98,20.76-367.58-76.39-66.44-58.9-33.82-102.82-115.58-190.84-90.55-97.49-149.5-64.72-240.51-152.45-115.07-110.94-57.52-197.25-156.63-276.9-120.24-96.63-249.91-7.19-364.37-99.86-49.37-39.97-76.45-98.08-90.6-159.87h-111.99c-19.63,0-35.56,15.91-35.56,35.53v1388.27c0,19.62,15.94,34.4,35.56,33l1909.32-135.53c9.37-.66,17.68-6.14,23.01-14.07-139.77-5.09-225.63-51.95-280.52-100.39-107.38-94.76-88.75-188.2-204.54-250.5Z"/>
          </g>
          <path class="cls-27" d="m2325.03,2896.05l-1887.45,139.36,822.96,147.68c9.42,1.69,18.98,2.14,28.49,1.34l1956.92-165.06-890.9-122.37c-9.96-1.37-20.01-1.69-30.02-.95Z"/>
          <polygon class="cls-11" points="712.99 3038.91 2284.35 2921.16 2770.67 2987.42 1212.85 3113.29 712.99 3038.91"/>
        </g>
        <g>
          <polygon class="cls-8" points="2308.64 1989.57 563.57 2016.17 563.57 1698.96 2308.64 1698.96 2308.64 1989.57"/>
          <polygon class="cls-8" points="1755.3 2555.36 649.71 2603.62 649.71 2071.4 1755.3 2051.53 1755.3 2555.36"/>
          <polygon class="cls-8" points="2235.77 2190.35 1819.9 2201.02 1819.9 2050.37 2235.77 2042.9 2235.77 2190.35"/>
          <polygon class="cls-8" points="2235.77 2534.39 1819.9 2552.54 1819.9 2254.38 2235.77 2242.57 2235.77 2534.39"/>
          <polygon class="cls-8" points="2235.77 2601.97 649.71 2676.8 649.71 2803.2 2235.77 2718.7 2235.77 2601.97"/>
        </g>
        <g>
          <path class="cls-48" d="m2713.62,1799.13l-1997.43,25.08c-11.32.14-20.57-8.99-20.57-20.31v-327.48c0-11.22,9.1-20.32,20.31-20.32h1997.43c11.22,0,20.32,9.1,20.32,20.32v302.4c0,11.12-8.94,20.17-20.06,20.31Z"/>
          <polygon class="cls-1" points="2273.09 2467.39 1005.34 2513.58 1005.34 1899.5 2273.09 1880.14 2273.09 2467.39"/>
          <polygon class="cls-34" points="2832.13 2044.23 2347.96 2054.69 2347.96 1878.99 2832.13 1871.6 2832.13 2044.23"/>
          <polygon class="cls-19" points="2832.13 2447.03 2347.96 2464.67 2347.96 2116.92 2832.13 2105.37 2832.13 2447.03"/>
          <polygon class="cls-18" points="2887.87 2511.17 1068.81 2581.88 1068.81 2727.4 2887.87 2647.56 2887.87 2511.17"/>
          <circle class="cls-12" cx="774.58" cy="1520.63" r="24.59" transform="translate(-850.49 2041.63) rotate(-80.78)"/>
          <circle class="cls-23" cx="855.39" cy="1520.63" r="24.59" transform="translate(-821.09 2003.77) rotate(-76.72)"/>
          <circle class="cls-44" cx="936.2" cy="1520.63" r="24.59" transform="translate(-714.76 2201.16) rotate(-80.78)"/>
        </g>
        <path class="cls-32" d="m2170.48,1456.1s85.11-33.96,102.61-22.99c17.51,10.97,35.55,54.15,48.49,70.33,12.94,16.18-22.08,16.45-48.49-7.4-26.41-23.85-102.61-39.93-102.61-39.93Z"/>
      </g>
    </g>
  </g>
</svg>